<?xml version="1.0" standalone="no"?>
<!DOCTYPE svg PUBLIC "-//W3C//DTD SVG 20010904//EN"
 "http://www.w3.org/TR/2001/REC-SVG-20010904/DTD/svg10.dtd">
<svg version="1.0" xmlns="http://www.w3.org/2000/svg"
 width="881.000000pt" height="881.000000pt" viewBox="0 0 881.000000 881.000000"
 preserveAspectRatio="xMidYMid meet">
<metadata>
Created by potrace 1.14, written by Peter Selinger 2001-2017
</metadata>
<g transform="translate(0.000000,881.000000) scale(0.100000,-0.100000)"
fill="#000000" stroke="none">
<path d="M5232 7450 c-41 -9 -83 -22 -95 -28 -12 -5 -40 -18 -62 -27 -88 -38
-213 -131 -317 -238 l-108 -109 -1 -171 c-4 -781 -3 -970 3 -980 4 -7 8 -9 8
-6 0 12 198 -40 285 -75 361 -146 642 -449 765 -826 53 -162 64 -240 64 -435
0 -131 -4 -204 -17 -267 -49 -247 -166 -480 -334 -668 -75 -85 -139 -180 -171
-257 -42 -99 -54 -165 -62 -348 -7 -152 -12 -193 -34 -261 -68 -212 -261 -383
-471 -418 l-40 -7 1 -445 1 -445 39 -41 c106 -109 317 -234 461 -272 195 -52
399 -55 628 -10 103 21 246 75 275 104 3 3 23 18 45 35 38 28 145 132 145 140
0 2 10 15 23 28 12 13 56 61 96 106 83 92 149 146 229 186 65 32 175 70 262
91 260 60 498 226 666 465 76 109 160 305 180 424 4 22 9 49 12 60 3 11 6 135
7 275 1 140 5 284 9 320 13 114 59 288 102 385 29 67 73 207 84 266 15 82 13
223 -3 304 -8 37 -19 105 -17 107 1 2 -3 16 -9 31 -6 15 -13 42 -17 60 -11 63
-55 183 -99 272 -58 116 -139 224 -263 350 -114 115 -140 150 -171 222 -37 90
-46 164 -56 468 -6 191 -33 288 -114 424 -92 154 -209 244 -497 385 -201 99
-273 144 -357 225 -47 44 -130 148 -192 240 -30 44 -117 137 -165 176 -90 73
-218 138 -343 176 -98 30 -273 34 -375 9z"/>
<path d="M3445 7448 c-185 -24 -384 -127 -529 -273 -42 -42 -76 -81 -76 -85 0
-5 -6 -15 -13 -22 -7 -7 -35 -44 -62 -83 -120 -171 -220 -247 -515 -392 -319
-157 -436 -266 -526 -489 -43 -105 -53 -174 -59 -381 -6 -224 -11 -267 -46
-370 -25 -77 -62 -127 -186 -253 -121 -123 -202 -232 -259 -349 -47 -95 -99
-252 -119 -361 -2 -14 -9 -50 -15 -80 -17 -86 -20 -248 -6 -325 7 -38 28 -110
46 -160 137 -377 142 -404 145 -751 1 -144 6 -288 10 -320 51 -423 392 -821
800 -934 356 -99 403 -126 578 -325 258 -296 362 -358 672 -401 95 -13 303
-12 383 1 209 35 417 137 569 281 l61 59 1 447 1 448 -27 5 c-181 39 -317 127
-406 264 -85 129 -103 199 -111 426 -9 245 -69 404 -212 557 -52 56 -132 159
-172 223 -79 127 -159 337 -182 475 -6 41 -14 89 -17 105 -3 17 -5 86 -5 155
1 387 153 741 432 1003 176 166 407 284 638 328 l62 12 -3 567 c-2 509 -4 569
-19 592 -42 64 -275 278 -302 278 -3 0 -21 11 -41 24 -44 30 -169 82 -215 90
-19 3 -48 8 -65 12 -48 9 -145 10 -210 2z"/>
</g>
</svg>
